<svg width="50" height="19" viewBox="0 0 50 19" fill="none" xmlns="http://www.w3.org/2000/svg">
<path fill-rule="evenodd" clip-rule="evenodd" d="M49.5 9.33924C49.5 8.82342 49.0819 8.40527 48.566 8.40527H1.86793C1.35212 8.40527 0.933964 8.82342 0.933964 9.33924C0.933964 9.85505 1.35212 10.2732 1.86793 10.2732H48.566C49.0819 10.2732 49.5 9.85505 49.5 9.33924Z" fill="#414053"/>
<path fill-rule="evenodd" clip-rule="evenodd" d="M14.7949 0.429029C14.516 -0.00486203 13.9381 -0.130483 13.5042 0.148447L0.428765 8.55411C0.161444 8.72596 -0.000150681 9.02194 -0.000150681 9.33974C-0.000150681 9.65753 0.161444 9.95352 0.428765 10.1254L13.5042 18.531C13.9381 18.81 14.516 18.6843 14.7949 18.2504C15.0738 17.8166 14.9482 17.2387 14.5143 16.9598L2.66095 9.33974L14.5143 1.7197C14.9482 1.44078 15.0738 0.86292 14.7949 0.429029Z" fill="#414053"/>
</svg>
