<svg width="50" height="19" viewBox="0 0 50 19" fill="none" xmlns="http://www.w3.org/2000/svg">
<path fill-rule="evenodd" clip-rule="evenodd" d="M0 9.33924C0 8.82342 0.418149 8.40527 0.933962 8.40527H47.6321C48.1479 8.40527 48.566 8.82342 48.566 9.33924C48.566 9.85505 48.1479 10.2732 47.6321 10.2732H0.933962C0.418149 10.2732 0 9.85505 0 9.33924Z" fill="#414053"/>
<path fill-rule="evenodd" clip-rule="evenodd" d="M34.7051 0.429029C34.984 -0.00486203 35.5619 -0.130483 35.9958 0.148447L49.0712 8.55411C49.3386 8.72596 49.5002 9.02194 49.5002 9.33974C49.5002 9.65753 49.3386 9.95352 49.0712 10.1254L35.9958 18.531C35.5619 18.81 34.984 18.6843 34.7051 18.2504C34.4262 17.8166 34.5518 17.2387 34.9857 16.9598L46.8391 9.33974L34.9857 1.7197C34.5518 1.44078 34.4262 0.86292 34.7051 0.429029Z" fill="#414053"/>
</svg>
