<svg width="27" height="11" viewBox="0 0 27 11" fill="#4EAC5F" xmlns="http://www.w3.org/2000/svg">
<path fill-rule="evenodd" clip-rule="evenodd" d="M0 5.46127C0 5.19485 0.223858 4.97887 0.5 4.97887H25.5C25.7761 4.97887 26 5.19485 26 5.46127C26 5.72769 25.7761 5.94366 25.5 5.94366H0.5C0.223858 5.94366 0 5.72769 0 5.46127Z"/>
<path fill-rule="evenodd" clip-rule="evenodd" d="M18.5795 0.858863C18.7288 0.634757 19.0382 0.569873 19.2704 0.713941L26.2704 5.05549C26.4136 5.14425 26.5001 5.29713 26.5001 5.46127C26.5001 5.62541 26.4136 5.77829 26.2704 5.86705L19.2704 10.2086C19.0382 10.3527 18.7288 10.2878 18.5795 10.0637C18.4301 9.83957 18.4974 9.54111 18.7297 9.39704L25.0754 5.46127L18.7297 1.5255C18.4974 1.38143 18.4301 1.08297 18.5795 0.858863Z"/>
</svg>
