<svg width="23" height="23" viewBox="0 0 23 23" fill="currentColor" xmlns="http://www.w3.org/2000/svg">
<path d="M20.6 6.8C21.5 6.1 22.3 5.3 23 4.3C22.1 4.7 21.2 4.9 20.3 5C21.3 4.4 22 3.5 22.4 2.4C21.5 2.9 20.5 3.3 19.4 3.5C18.5 2.6 17.3 2 15.9 2C13.3 2 11.2 4.1 11.2 6.7C11.2 7.1 11.2 7.4 11.3 7.8C7.4 7.6 3.9 5.7 1.5 2.8C1.1 3.5 0.900002 4.3 0.900002 5.2C0.900002 6.8 1.7 8.3 3 9.1C2.2 9.1 1.5 8.9 0.900002 8.5V8.6C0.900002 10.9 2.5 12.8 4.7 13.3C4.3 13.4 3.9 13.5 3.5 13.5C3.2 13.5 2.9 13.5 2.6 13.4C3.2 15.3 5 16.7 7 16.7C5.4 18 3.3 18.7 1.1 18.7C0.699998 18.7 0.3 18.7 0 18.6C2.1 20 4.6 20.7 7.3 20.7C15.5 20.9 20.9 13.9 20.6 6.8Z" />
</svg>
