<svg width="23" height="23" viewBox="0 0 23 23" fill="currentColor" xmlns="http://www.w3.org/2000/svg">
<path d="M11.4997 5.4751C8.29971 5.4751 5.69971 8.0751 5.69971 11.2751C5.69971 14.4751 8.29971 17.0751 11.4997 17.0751C14.6997 17.0751 17.2997 14.4751 17.2997 11.2751C17.3997 8.1751 14.6997 5.4751 11.4997 5.4751ZM11.4997 15.1751C9.39971 15.1751 7.69971 13.4751 7.69971 11.3751C7.69971 9.2751 9.39971 7.5751 11.4997 7.5751C13.5997 7.5751 15.2997 9.2751 15.2997 11.3751C15.2997 13.4751 13.5997 15.1751 11.4997 15.1751Z"/>
<path d="M16.1997 0.075C14.0997 -0.025 8.89972 -0.025 6.79972 0.075C4.99972 0.175 3.39971 0.575 1.99971 1.875C-0.200286 4.075 0.0997128 6.975 0.0997128 11.375C0.0997128 15.775 -0.100286 18.675 1.99971 20.875C4.19971 23.075 7.19971 22.775 11.4997 22.775C15.8997 22.775 17.3997 22.775 18.9997 22.175C21.0997 21.375 22.6997 19.475 22.8997 16.075C22.9997 13.975 22.9997 8.775 22.8997 6.675C22.6997 2.675 20.4997 0.275 16.1997 0.075ZM19.4997 19.375C18.0997 20.775 16.0997 20.675 11.4997 20.675C6.79971 20.675 4.79971 20.775 3.49971 19.375C1.89971 17.775 2.19971 15.175 2.19971 11.375C2.19971 6.175 1.69972 2.375 6.89972 2.075C8.09972 2.075 8.49971 1.975 11.4997 1.975C16.5997 1.975 20.4997 1.475 20.7997 6.675C20.8997 7.875 20.8997 8.275 20.8997 11.275C20.8997 16.075 20.8997 17.975 19.4997 19.375Z"/>
<path d="M17.5997 6.675C18.3729 6.675 18.9997 6.0482 18.9997 5.275C18.9997 4.5018 18.3729 3.875 17.5997 3.875C16.8265 3.875 16.1997 4.5018 16.1997 5.275C16.1997 6.0482 16.8265 6.675 17.5997 6.675Z"/>
</svg>
