<svg width="112" height="58" viewBox="0 0 112 58" fill="none" xmlns="http://www.w3.org/2000/svg">
<path d="M35.6857 32.6953C35.9536 32.6953 36.1679 32.8024 36.3287 33.0166C36.543 33.1773 36.6502 33.3915 36.6502 33.6593V41.9335C36.6502 42.2013 36.543 42.4423 36.3287 42.6565C36.1679 42.8172 35.9536 42.8975 35.6857 42.8975H33.1941C32.9262 42.8975 32.7922 43.0314 32.7922 43.2992V56.1524C32.7922 56.4201 32.6851 56.6611 32.4708 56.8754C32.31 57.036 32.0957 57.1163 31.8278 57.1163H22.4241C22.1562 57.1163 21.9151 57.036 21.7008 56.8754C21.54 56.6611 21.4596 56.4201 21.4596 56.1524V43.2992C21.4596 43.0314 21.3257 42.8975 21.0578 42.8975H0.964478C0.696567 42.8975 0.455448 42.8172 0.24112 42.6565C0.0803732 42.4423 0 42.2013 0 41.9335V35.3463C0 34.8643 0.0535821 34.4626 0.160746 34.1413L10.8504 1.68698C11.0111 1.15143 11.3594 0.883655 11.8952 0.883655H22.1026C22.4241 0.883655 22.6652 0.990765 22.826 1.20499C22.9867 1.36565 23.0135 1.63343 22.9064 2.00831L13.2616 32.2133C13.208 32.5346 13.3152 32.6953 13.5831 32.6953H21.0578C21.3257 32.6953 21.4596 32.5614 21.4596 32.2936V23.9391C21.4596 23.6713 21.54 23.4571 21.7008 23.2964C21.9151 23.0822 22.1562 22.9751 22.4241 22.9751H31.8278C32.0957 22.9751 32.31 23.0822 32.4708 23.2964C32.6851 23.4571 32.7922 23.6713 32.7922 23.9391V32.2936C32.7922 32.5614 32.9262 32.6953 33.1941 32.6953H35.6857Z" fill="white"/>
<path d="M55.9699 58C51.2546 58 47.4503 56.5272 44.5569 53.5817C41.6634 50.5826 40.2167 46.6464 40.2167 41.7729V16.2271C40.2167 11.3536 41.6634 7.44414 44.5569 4.49861C47.4503 1.49954 51.2546 0 55.9699 0C59.0776 0 61.8371 0.669437 64.2483 2.00831C66.6595 3.34718 68.5081 5.24838 69.794 7.71191C71.1336 10.1754 71.8034 13.0139 71.8034 16.2271V41.7729C71.8034 44.9862 71.1336 47.8246 69.794 50.2881C68.5081 52.7516 66.6595 54.6528 64.2483 55.9917C61.8371 57.3306 59.0776 58 55.9699 58ZM55.9699 48.2798C57.3094 48.2798 58.381 47.7442 59.1848 46.6731C60.0421 45.602 60.4708 44.1828 60.4708 42.4155V15.5845C60.4708 13.8172 60.0421 12.398 59.1848 11.3269C58.381 10.2558 57.3094 9.72022 55.9699 9.72022C54.6303 9.72022 53.5587 10.2558 52.7549 11.3269C51.9512 12.398 51.5493 13.8172 51.5493 15.5845V42.4155C51.5493 44.1828 51.9512 45.602 52.7549 46.6731C53.5587 47.7442 54.6303 48.2798 55.9699 48.2798Z" fill="white"/>
<path d="M111.036 32.6953C111.303 32.6953 111.518 32.8024 111.678 33.0166C111.893 33.1773 112 33.3915 112 33.6593V41.9335C112 42.2013 111.893 42.4423 111.678 42.6565C111.518 42.8172 111.303 42.8975 111.036 42.8975H108.544C108.276 42.8975 108.142 43.0314 108.142 43.2992V56.1524C108.142 56.4201 108.035 56.6611 107.821 56.8754C107.66 57.036 107.446 57.1163 107.178 57.1163H97.7739C97.506 57.1163 97.2649 57.036 97.0506 56.8754C96.8898 56.6611 96.8095 56.4201 96.8095 56.1524V43.2992C96.8095 43.0314 96.6755 42.8975 96.4076 42.8975H76.3143C76.0464 42.8975 75.8053 42.8172 75.591 42.6565C75.4302 42.4423 75.3498 42.2013 75.3498 41.9335V35.3463C75.3498 34.8643 75.4034 34.4626 75.5106 34.1413L86.2002 1.68698C86.361 1.15143 86.7092 0.883655 87.2451 0.883655H97.4525C97.7739 0.883655 98.0151 0.990765 98.1758 1.20499C98.3366 1.36565 98.3633 1.63343 98.2562 2.00831L88.6114 32.2133C88.5578 32.5346 88.665 32.6953 88.9329 32.6953H96.4076C96.6755 32.6953 96.8095 32.5614 96.8095 32.2936V23.9391C96.8095 23.6713 96.8898 23.4571 97.0506 23.2964C97.2649 23.0822 97.506 22.9751 97.7739 22.9751H107.178C107.446 22.9751 107.66 23.0822 107.821 23.2964C108.035 23.4571 108.142 23.6713 108.142 23.9391V32.2936C108.142 32.5614 108.276 32.6953 108.544 32.6953H111.036Z" fill="white"/>
</svg>
