<svg width="240" height="95" viewBox="0 0 240 95" fill="none" xmlns="http://www.w3.org/2000/svg">
<path d="M136.608 30.4308C133.856 30.4308 131.706 31.3767 130.245 33.0105V16.4143H124.139V54.5942H130.245V39.4599C131.104 37.2241 132.996 35.9342 135.318 35.9342C137.984 35.9342 139.789 37.826 139.789 40.8357V54.5942H145.895V40.4058C145.981 34.4724 142.283 30.4308 136.608 30.4308Z" fill="#414053"/>
<path d="M166.36 51.5846C167.306 52.9604 169.112 54.7662 171.692 54.7662C173.498 54.7662 175.647 54.7662 175.647 54.7662V48.4889C175.647 48.4889 171.348 49.2628 171.176 46.3391V30.8608H165.243V33.0106H165.071C163.609 31.5487 161.545 30.4308 158.621 30.4308C152 30.4308 146.497 35.6763 146.497 42.7275C146.497 49.7788 152 55.0242 158.621 55.0242C161.545 55.0242 163.953 53.9923 165.415 52.4445L166.274 51.5846H166.36ZM165.071 46.3391C163.953 48.3169 161.889 49.5208 159.309 49.5208C155.354 49.5208 152.688 46.6831 152.688 42.7275C152.688 38.7719 155.354 35.9342 159.309 35.9342C161.889 35.9342 163.867 37.0521 165.071 39.1159V46.3391Z" fill="#414053"/>
<path d="M185.021 54.6803L197.318 30.8608H190.352L184.419 43.2435L178.486 30.8608H171.52L183.903 54.6803H185.021Z" fill="#414053"/>
<path d="M206.003 30.4308C199.037 30.4308 193.706 35.8483 193.706 42.7275C193.706 49.8648 199.209 55.0242 206.862 55.0242C210.904 55.0242 214.258 53.7344 216.321 51.7566L213.742 46.9411C212.28 48.4029 210.13 49.6068 207.12 49.6068C203.853 49.6068 200.929 47.801 199.897 44.7913L217.095 38.686C215.805 33.6985 211.592 30.4308 206.003 30.4308ZM206.26 35.2463C207.636 35.2463 208.926 35.6763 209.872 36.4502L199.983 39.8898C200.843 36.8801 203.165 35.2463 206.26 35.2463Z" fill="#414053"/>
<path d="M230.338 30.4308C227.586 30.4308 225.35 31.4627 223.889 33.0965H223.717V30.8608H217.869V54.5943H223.974V39.4599C224.834 37.3101 226.726 35.9342 229.048 35.9342C231.714 35.9342 233.519 37.826 233.519 40.8357V54.5943H239.625V40.4058C239.711 34.4724 236.013 30.4308 230.338 30.4308Z" fill="#414053"/>
<path d="M136.78 69.2127C134.028 69.2127 131.878 70.2446 130.33 71.7924V58.6358H124.139V93.6341H130.33V78.4137C131.19 76.178 133.082 74.8021 135.49 74.8021C138.156 74.8021 139.961 76.7799 139.961 79.7036V93.6341H146.153V79.3596C146.239 73.3403 142.541 69.2127 136.78 69.2127Z" fill="#414053"/>
<path d="M154.752 69.6427H148.561V93.6341H154.752V69.6427Z" fill="#414053"/>
<path d="M151.57 65.6011C153.29 65.6011 154.666 64.3112 154.666 62.5054C154.666 60.7856 153.204 59.4957 151.57 59.4957C149.85 59.4957 148.474 60.7856 148.474 62.5054C148.474 64.3112 149.85 65.6011 151.57 65.6011Z" fill="#414053"/>
<path d="M163.781 59.7537H157.59V93.6341H163.781V59.7537Z" fill="#414053"/>
<path d="M172.896 59.7537H166.705V93.6341H172.896V59.7537Z" fill="#414053"/>
<path d="M185.451 79.0156C182.011 78.3277 180.979 77.6398 180.979 76.178C180.979 74.8881 182.097 74.1142 184.075 74.1142C186.139 74.1142 188.116 74.8881 189.664 76.2639L192.072 71.4485C190.008 69.9006 187.342 69.0407 184.247 69.0407C178.571 69.0407 174.874 71.9644 174.874 76.4359C174.874 80.0475 177.539 82.6273 182.527 83.8311C185.537 84.6051 186.74 85.379 186.74 86.7548C186.74 88.1307 185.537 89.0766 183.301 89.0766C180.979 89.0766 178.055 87.7867 176.336 86.1529L173.756 91.0544C176.336 93.0322 179.517 94.064 183.043 94.064C188.976 94.064 192.76 91.1404 192.76 86.4969C192.76 82.5413 190.18 80.0475 185.451 79.0156Z" fill="#414053"/>
<path d="M106.769 1.02196L93.8702 25.4434L53.5405 25.1854L65.8372 2.22583L65.5792 1.10795L51.0468 1.02196L1.60205 93.8921H17.1664L27.4853 73.2543H68.5029L57.5821 93.8921H74.1783L121.215 2.31182L120.441 1.02196H106.769ZM71.8566 66.8909L32.0428 65.945L50.5308 31.0328H90.8605L71.8566 66.8909Z" fill="white"/>
<path d="M1.68793 93.8921C1.68793 93.8921 10.287 77.8978 14.2426 70.3306C10.029 68.9547 6.76139 67.6649 2.63383 66.031C2.03189 65.7731 1.68793 65.2571 1.68793 64.5692L1.77392 50.5527C1.77392 49.7788 2.54784 49.1768 3.32175 49.4348L21.9818 55.8841C22.7557 54.5083 23.4436 53.0464 24.2175 51.6706L2.71982 44.2754C2.11788 44.1034 1.77392 43.5014 1.77392 42.8995L1.9459 14.1785C1.9459 13.1467 2.80581 12.3727 3.75171 12.2868L24.6475 12.1148C25.5074 12.1148 26.3673 12.4587 26.9692 12.9747L38.922 23.8095C39.6099 22.5197 41.2437 19.51 41.2437 19.51L33.7625 12.7167C33.5045 12.5447 33.6765 12.1148 34.0205 12.1148L45.0273 12.2008L45.5433 11.2549H3.49374C2.11788 11.2549 1 12.3727 1 13.7486V93.2041C1 93.5481 1.25797 93.7201 1.51595 93.7201H1.68793V93.8921Z" fill="#414053"/>
<path d="M26.8832 74.2001C23.3576 80.6495 17.2523 93.7201 17.1663 93.8061H57.582C57.668 93.6341 62.0535 85.379 64.1173 81.5954C52.1645 80.1335 40.4698 77.9837 26.8832 74.2001Z" fill="#414053"/>
<path d="M56.4641 2.05384H65.2352L53.8844 24.4975H50.1008C49.4989 24.4975 48.8969 24.6694 48.381 24.9274C47.1771 25.5293 45.1993 26.9052 44.8554 28.711C44.6834 29.6569 45.0274 30.9468 45.0274 30.9468C45.1993 31.3767 45.7153 31.8067 46.2312 31.8067H49.1549C49.0689 31.9787 36.6003 55.7981 36.6003 55.7981L31.2688 66.031H28.7751C27.7432 66.031 26.8833 66.289 25.7654 66.8049C25.6794 66.8049 25.5934 66.8909 25.5074 66.9769L24.8195 67.2349C23.1857 68.1808 22.1538 69.5566 22.6697 71.6204C22.7557 71.8784 22.8417 72.0504 22.9277 72.3084L23.0997 72.5663C23.3577 72.9103 23.7876 73.1683 24.2176 73.1683H68.5029C68.5889 72.9103 68.9328 72.3084 69.0188 72.2224H24.3895C24.3036 72.2224 24.1316 72.2224 24.1316 72.1364C23.9596 71.9644 23.7016 71.6204 23.7016 71.1905C23.5296 70.0726 24.0456 69.1267 24.9055 68.4388C26.1094 67.4929 27.5712 66.8909 29.205 66.8909L72.0285 66.8049C72.0285 66.8049 72.3725 66.117 72.5444 65.859H66.1811L38.664 56.486C38.1481 56.3141 37.8901 55.7121 38.1481 55.1962L49.4129 34.1284C49.5849 33.7845 50.0148 33.6985 50.2728 33.9564L76.672 58.0339C77.4459 56.572 78.2198 55.1962 78.9938 53.7343L55.1743 31.9787L86.217 32.0646C86.8189 32.0646 87.2489 32.4086 87.4209 33.0105L88.0228 36.6222C88.0228 36.6222 90.8605 31.2047 90.9465 31.1187L54.2284 31.0328H46.5752C45.9733 31.0328 45.8873 30.4308 45.8873 30.1728C45.5433 28.0231 47.6071 26.5612 48.811 25.9593C49.2409 25.7013 49.7569 25.6153 50.2728 25.6153L93.9562 25.5293C94.0421 25.4434 94.4721 24.5834 94.4721 24.5834H89.9146L86.6469 12.7167C86.5609 12.4587 86.7329 12.2008 86.9909 12.2868L101.007 12.4587C101.179 12.2008 101.351 11.8568 101.523 11.5128H62.6555C62.3115 11.5128 62.0535 11.1689 62.2255 10.8249L66.3531 2.3978C66.6111 1.88186 66.2671 1.27992 65.6652 1.27992H56.7221C56.2922 1.27992 55.8622 1.53789 55.6902 1.88186L6.84741 93.8921H8.39525L56.4641 2.05384ZM51.3907 65.945H32.9026C32.6447 65.945 32.4727 65.6871 32.5587 65.4291L34.7944 61.3015C35.0524 60.8716 35.5684 60.6136 36.0843 60.7856L51.3907 65.945ZM84.4112 24.4975L54.9163 24.5834L61.2796 12.2868L80.3696 12.2008C81.0575 12.2008 81.5735 12.6307 81.7455 13.2326L84.7551 23.9815C84.8411 24.2395 84.6692 24.4975 84.4112 24.4975Z" fill="#414053"/>
<path d="M111.412 1.62388L63.6013 93.8921H65.1492L112.444 2.05383H120.097C120.097 2.05383 74.2642 93.7201 74.1782 93.8921H111.842C112.96 93.8921 113.906 92.9462 113.906 91.8283V17.3602C113.906 17.1022 113.992 16.7583 114.078 16.5003L121.129 2.22581C121.387 1.62388 120.957 0.935951 120.355 0.935951H112.358C112.014 1.02194 111.584 1.27991 111.412 1.62388ZM83.8952 77.0378L87.2488 78.1557C88.0227 78.4137 88.7966 77.9837 89.0546 77.2958C89.2266 76.7799 89.3986 76.1779 89.6565 75.662C90.0005 74.8881 89.6565 74.0282 88.7966 73.6842L85.9589 72.7383C85.873 72.7383 85.787 72.5663 85.8729 72.4803L87.6788 68.9547C87.7648 68.7827 88.0227 68.6967 88.1947 68.8687L91.2044 71.6204C91.6343 71.9644 92.2363 71.9644 92.5802 71.6204C93.1822 71.0185 93.7841 70.5025 94.386 70.0726C94.988 69.6426 94.988 68.7827 94.472 68.2668L90.3445 64.4832C90.1725 64.3112 90.0865 64.0532 90.1725 63.7953L93.5261 57.002C93.6121 56.916 93.7841 56.916 93.7841 57.002L96.6218 67.0629C96.7938 67.7508 97.5677 68.1808 98.2556 68.0088C98.8576 67.8368 99.4595 67.6648 100.147 67.5789C100.921 67.4069 101.437 66.633 101.179 65.859L97.0518 50.9826C96.9658 50.6387 96.9658 50.3807 97.1378 50.0367L113.218 17.9621V19.08L103.501 65.945C103.329 66.7189 103.845 67.4929 104.619 67.5789C105.135 67.6648 105.651 67.7508 106.167 67.9228C107.113 68.1808 108.059 67.5789 108.231 66.7189L113.218 42.5555V63.1073C113.218 63.4513 113.132 63.7953 112.874 64.1392L109.95 68.0088C109.52 68.6107 109.606 69.4706 110.208 69.9006C111.154 70.5025 112.014 71.2765 112.788 72.1364L113.218 71.5344V72.6523V83.5732C111.068 83.6591 101.867 84.0891 88.4527 83.4012C85.9589 83.3152 83.5512 83.1432 80.7995 82.9712C80.6275 82.9712 80.5415 82.7992 80.6275 82.7132L83.3792 77.2098C83.6372 77.0378 83.8092 76.9519 83.8952 77.0378Z" fill="#414053"/>
<path d="M112.788 72.0504C112.788 72.0504 113.39 73.0823 113.39 73.1683C113.648 70.6745 113.648 70.6745 113.648 70.6745C113.648 70.6745 112.186 70.9325 112.788 72.0504Z" fill="#414053"/>
<path d="M1.85986 14.1786V93.2901" stroke="#414053" stroke-width="3" stroke-miterlimit="10"/>
<path d="M113.39 18.0481V91.8283" stroke="#414053" stroke-width="3" stroke-miterlimit="10"/>
</svg>
