<?xml version="1.0" standalone="no"?>
<!DOCTYPE svg PUBLIC "-//W3C//DTD SVG 20010904//EN"
 "http://www.w3.org/TR/2001/REC-SVG-20010904/DTD/svg10.dtd">
<svg version="1.0" xmlns="http://www.w3.org/2000/svg"
 width="976.000000pt" height="976.000000pt" viewBox="0 0 976.000000 976.000000"
 preserveAspectRatio="xMidYMid meet">
<metadata>
Created by potrace 1.11, written by Peter Selinger 2001-2013
</metadata>
<g transform="translate(0.000000,976.000000) scale(0.100000,-0.100000)"
fill="#000000" stroke="none">
<path d="M8986 8562 c-2 -2 -104 -4 -226 -4 l-221 -1 -32 -61 c-17 -33 -30
-64 -29 -68 1 -5 -2 -8 -8 -8 -5 0 -10 -4 -10 -9 0 -5 -12 -30 -27 -57 -15
-27 -28 -55 -30 -62 -1 -8 -8 -21 -16 -30 -7 -10 -31 -51 -52 -92 -181 -353
-233 -445 -252 -445 -10 -1 -23 -3 -28 -6 -6 -4 -26 -4 -45 -2 -19 2 -44 3
-55 3 -29 -2 -47 -2 -75 -1 -20 2 -112 2 -250 1 -8 0 -42 0 -75 0 -33 0 -69 0
-80 -1 -35 -1 -49 -1 -75 0 -20 2 -112 2 -250 1 -8 0 -42 0 -75 0 -33 0 -69 0
-80 -1 -35 -1 -49 -1 -75 0 -20 2 -112 2 -250 1 -8 0 -42 0 -75 0 -33 0 -69 0
-80 -1 -41 -2 -51 -1 -93 3 -24 2 -45 1 -47 -3 -5 -7 -74 -4 -82 5 -3 2 -16 1
-29 -4 -15 -6 -26 -6 -30 1 -3 6 -10 6 -17 1 -12 -9 -74 -8 -84 1 -3 3 -16 2
-29 -3 -15 -6 -26 -6 -30 1 -3 6 -10 6 -17 1 -12 -9 -74 -8 -84 1 -3 3 -16 2
-29 -3 -15 -6 -26 -6 -30 1 -3 6 -10 6 -17 1 -7 -5 -28 -7 -47 -5 -19 2 -44 3
-55 3 -29 -2 -47 -2 -75 -1 -25 2 -127 2 -165 0 -20 -1 -26 -1 -87 0 -18 1
-108 0 -201 -1 -92 -1 -170 1 -173 5 -3 3 -17 2 -30 -3 -27 -11 -80 4 -88 25
-3 8 19 64 49 125 30 61 55 115 55 120 0 6 5 10 10 10 6 0 10 6 10 13 0 7 22
58 50 113 27 54 50 104 50 111 0 6 3 13 8 15 7 3 71 131 97 193 17 39 5 70
-35 90 -27 14 -102 17 -609 19 l-578 4 -48 -92 c-27 -50 -59 -111 -73 -136
-13 -25 -43 -81 -66 -125 -22 -44 -43 -82 -46 -85 -3 -3 -27 -48 -54 -100 -27
-52 -67 -126 -88 -165 -22 -38 -44 -81 -50 -95 -11 -26 -17 -27 -203 -19 -15
0 -259 1 -495 0 -8 0 -116 0 -240 0 -124 0 -232 0 -240 0 -8 0 -116 0 -240 0
-124 0 -232 0 -240 0 -15 -1 -132 0 -160 0 -26 0 -464 0 -480 0 -15 -1 -132 0
-160 0 -26 0 -464 0 -480 0 -14 -1 -128 -1 -157 0 -136 2 -319 -4 -346 -12
-45 -12 -113 -80 -123 -122 -4 -18 -9 -35 -10 -39 -1 -5 -2 -21 -3 -37 -1 -24
-5 -28 -26 -26 l-25 3 0 -3168 c0 -3078 1 -3168 19 -3163 10 2 24 -2 32 -10
40 -39 41 -39 678 -37 718 2 2946 2 6033 0 2065 -2 2188 -1 2223 16 43 20 95
86 95 121 0 23 9 27 58 25 14 -1 22 5 22 16 1 24 1 5666 0 5788 l0 102 -37 -2
-38 -1 -1 45 c0 25 4 51 9 58 5 6 6 12 2 12 -4 0 0 12 10 26 9 14 22 40 28 57
7 18 30 66 52 107 21 41 40 77 40 80 4 18 161 326 167 328 4 2 8 9 8 15 0 7
24 59 54 117 157 303 211 416 212 443 1 17 -8 40 -22 56 l-22 26 -331 1 c-183
0 -333 -2 -335 -4z m-6936 -902 c0 -5 8 -10 19 -10 20 0 78 -37 115 -73 13
-12 40 -37 62 -56 57 -51 277 -249 355 -321 15 -14 57 -52 94 -85 37 -33 79
-71 95 -85 15 -14 52 -47 82 -75 30 -27 94 -86 142 -130 49 -44 92 -81 96 -83
5 -2 -4 -26 -21 -53 -16 -27 -29 -54 -29 -59 0 -6 -5 -10 -10 -10 -6 0 -9 -3
-8 -7 2 -7 -19 -50 -77 -156 -11 -20 -49 -92 -84 -160 -35 -67 -68 -123 -72
-125 -5 -2 -9 -9 -9 -15 0 -13 -4 -20 -65 -132 -49 -91 -100 -186 -166 -310
-29 -55 -65 -122 -80 -150 -15 -27 -51 -97 -80 -155 -30 -58 -57 -106 -61
-108 -5 -2 -8 -8 -8 -12 0 -5 -13 -32 -30 -60 -16 -27 -27 -50 -24 -50 3 0 -3
-12 -14 -27 -10 -16 -25 -41 -34 -58 -8 -16 -38 -75 -68 -130 -29 -55 -69
-131 -90 -170 -20 -38 -61 -115 -90 -170 -29 -55 -57 -103 -62 -106 -5 -3 -80
18 -166 48 -86 30 -206 71 -267 91 -60 20 -113 41 -117 47 -4 5 -8 7 -8 4 0
-4 -71 18 -157 48 -87 30 -162 56 -168 57 -5 2 -17 6 -25 9 -8 3 -49 17 -90
31 -41 13 -115 39 -165 56 -49 18 -98 33 -107 35 -9 2 -25 8 -35 13 -10 5 -90
33 -178 62 -88 29 -164 56 -168 60 -4 4 -8 551 -8 1217 l0 1210 -54 -1 c-52
-1 -55 0 -55 23 0 37 37 87 79 108 34 17 66 19 307 22 148 1 269 3 270 4 1 1
279 3 618 5 413 1 616 -1 616 -8z m1521 -65 c-21 -38 -67 -124 -101 -190 -35
-66 -85 -159 -112 -208 -26 -48 -48 -92 -48 -97 0 -21 -27 -8 -76 38 -27 26
-90 83 -139 127 -48 44 -100 91 -115 105 -15 14 -60 54 -99 90 -195 176 -196
177 -181 194 12 15 59 16 461 14 l448 -3 -38 -70z m1912 61 c8 8 938 11 977 2
29 -6 72 -44 76 -68 0 -3 4 -12 7 -20 4 -8 18 -58 32 -110 52 -193 64 -237 95
-345 18 -60 34 -119 36 -131 2 -12 10 -40 19 -63 8 -23 14 -42 14 -44 -1 -1
12 -50 26 -97 12 -41 16 -83 8 -91 -6 -6 -32 -10 -59 -9 -27 0 -56 1 -64 1 -8
0 -518 -2 -1133 -4 l-1117 -4 6 21 c3 12 14 35 24 51 10 17 66 125 125 240 59
116 111 214 116 220 5 5 9 17 9 27 0 10 4 18 9 18 5 0 13 10 17 23 3 12 13 30
22 40 8 9 12 17 8 17 -4 0 4 19 18 43 13 23 49 91 79 150 31 60 60 114 66 121
8 10 74 13 272 14 144 1 264 4 267 6 2 3 12 1 22 -4 10 -5 20 -7 23 -4z m2344
-9 c117 -2 215 -6 218 -9 4 -4 -20 -57 -53 -120 -33 -62 -74 -139 -90 -171
-16 -31 -35 -64 -42 -72 -7 -8 -9 -15 -5 -15 4 0 3 -6 -2 -12 -6 -7 -37 -62
-69 -123 -139 -264 -186 -353 -210 -401 l-25 -50 -174 0 c-95 1 -176 4 -180 7
-5 5 -41 129 -70 239 -10 37 -37 135 -70 255 -20 72 -38 137 -40 145 -2 8 -4
15 -5 15 -1 0 -3 7 -5 15 -1 8 -10 42 -19 75 -10 33 -18 65 -19 70 -2 6 -11
41 -22 78 -14 53 -16 70 -6 76 11 7 177 7 888 -2z m1120 -927 c-2 -91 -6 -175
-9 -186 -4 -12 -9 -38 -12 -59 -4 -20 -8 -41 -11 -45 -2 -4 -7 -22 -9 -41 -6
-37 -14 -74 -16 -74 -1 0 -3 -11 -5 -25 -2 -20 -59 -295 -81 -395 -6 -26 -13
-63 -20 -100 -3 -16 -16 -82 -30 -145 -14 -63 -27 -128 -30 -145 -2 -16 -12
-68 -23 -115 -19 -81 -24 -106 -36 -175 -3 -16 -11 -48 -16 -70 -6 -22 -13
-53 -15 -68 -2 -16 -6 -36 -8 -46 -3 -9 -8 -32 -11 -51 -3 -19 -10 -51 -15
-70 -5 -19 -11 -48 -14 -65 -2 -16 -14 -74 -25 -129 -12 -54 -23 -108 -25
-120 -2 -11 -9 -41 -15 -66 -5 -25 -12 -58 -15 -75 -3 -16 -8 -39 -10 -50 -4
-18 -61 -291 -70 -340 -3 -11 -9 -42 -15 -70 -14 -64 -22 -105 -26 -130 -1
-11 -8 -40 -15 -65 -7 -25 -14 -59 -16 -77 -2 -18 -11 -63 -20 -100 -9 -37
-18 -81 -21 -98 -2 -16 -12 -67 -22 -112 -15 -68 -15 -87 -5 -112 11 -27 52
-62 78 -67 6 -1 29 -5 50 -9 22 -4 49 -10 60 -15 34 -12 100 -5 130 15 30 20
51 55 59 100 3 17 8 41 12 55 3 14 7 36 10 50 10 51 15 76 21 105 4 17 8 39
10 50 1 11 3 21 4 23 3 2 4 5 13 52 4 19 9 46 12 60 3 14 7 36 10 50 3 14 7
36 10 50 3 14 8 38 11 54 2 16 6 32 8 35 2 3 7 28 10 55 4 27 9 52 11 56 4 6
9 29 21 90 4 24 45 222 66 320 5 25 11 56 14 70 2 14 7 36 10 50 3 14 8 39 11
55 18 112 21 31 22 -550 1 -596 0 -653 -16 -675 -9 -14 -20 -27 -23 -30 -15
-12 -130 -173 -131 -184 -1 -6 -3 -21 -4 -34 -3 -26 31 -80 60 -96 10 -6 24
-15 31 -21 6 -5 28 -23 48 -39 l36 -28 0 -499 0 -499 -42 -1 c-24 -1 -110 -3
-193 -5 -331 -10 -1016 -4 -1360 11 -55 3 -152 7 -215 10 -238 10 -318 14
-405 20 -156 11 -209 14 -247 14 -21 1 -38 6 -38 12 0 5 50 111 112 234 77
155 117 225 131 229 10 2 77 -15 148 -40 72 -24 146 -47 165 -50 61 -10 117
40 131 116 2 13 10 28 16 32 7 4 9 8 4 8 -4 0 0 14 9 32 33 63 -1 159 -61 173
-21 4 -127 41 -160 55 -11 5 -32 11 -47 14 -16 4 -28 12 -28 19 0 6 23 55 50
107 28 52 59 116 71 142 35 79 32 80 222 -96 127 -118 138 -120 233 -38 127
107 136 117 139 147 5 43 -15 73 -100 150 -43 39 -101 93 -131 120 -29 28 -73
69 -98 93 -25 24 -46 49 -46 57 0 13 57 135 110 235 13 25 25 47 25 50 1 3 32
69 70 147 53 109 72 140 81 130 12 -13 11 -8 129 -432 103 -368 113 -400 133
-418 35 -30 72 -34 146 -15 39 9 86 20 105 23 38 6 78 43 87 81 3 13 1 44 -5
67 -7 23 -20 74 -31 112 -38 142 -71 261 -81 290 -5 17 -32 113 -59 215 -53
198 -65 241 -86 307 -7 23 -15 53 -18 65 -2 13 -14 57 -26 98 -42 139 -89 27
565 1332 672 1341 600 1230 592 918z m-1950 -566 c-3 -3 -12 -4 -19 -1 -8 3
-5 6 6 6 11 1 17 -2 13 -5z m60 0 c-3 -3 -12 -4 -19 -1 -8 3 -5 6 6 6 11 1 17
-2 13 -5z m40 0 c-3 -3 -12 -4 -19 -1 -8 3 -5 6 6 6 11 1 17 -2 13 -5z m-2499
-78 c6 -3 13 -3 16 2 5 9 70 7 86 -3 6 -3 10 -2 10 3 0 10 62 8 79 -2 5 -4 13
-2 16 4 5 7 11 8 19 1 7 -6 18 -6 26 -1 7 4 24 4 37 -1 12 -5 23 -5 23 -1 0 9
95 7 109 -3 6 -3 11 -2 11 4 0 6 11 6 30 1 17 -5 30 -5 30 -1 0 8 59 5 68 -3
2 -3 15 -1 28 4 13 5 24 6 24 2 0 -9 123 -8 138 2 7 4 12 4 12 -1 0 -9 231 -9
255 0 8 4 15 3 15 -1 0 -4 289 -7 643 -6 525 0 647 -2 670 -14 33 -15 52 -56
61 -127 4 -27 11 -72 16 -100 23 -120 38 -76 -155 -440 -26 -49 -60 -112 -75
-140 -43 -78 -68 -129 -68 -139 0 -5 -4 -12 -9 -15 -5 -3 -24 -35 -42 -71 -19
-36 -46 -87 -61 -115 -15 -27 -44 -84 -65 -125 -21 -41 -45 -82 -52 -92 -8 -9
-15 -22 -17 -30 -1 -7 -20 -47 -43 -88 -23 -41 -59 -109 -80 -151 -33 -66 -41
-75 -55 -65 -15 11 -165 147 -234 211 -40 38 -184 169 -211 193 -23 19 -183
166 -247 226 -22 21 -74 68 -115 105 -41 36 -86 77 -101 91 -15 14 -69 63
-120 110 -52 47 -111 101 -132 120 -21 19 -70 64 -109 100 -39 36 -83 76 -98
90 -15 14 -67 61 -115 105 -49 44 -100 91 -115 105 -14 14 -71 66 -126 115
-128 116 -145 132 -145 142 0 10 152 9 168 -1z m-523 -200 c17 -17 69 -65 114
-106 46 -41 96 -86 111 -100 15 -14 64 -59 110 -100 46 -41 95 -86 110 -100
27 -25 204 -187 224 -205 6 -5 60 -55 121 -110 60 -55 116 -107 125 -115 9 -8
37 -33 61 -55 71 -64 228 -207 269 -245 21 -19 70 -64 109 -100 40 -36 89 -81
110 -100 21 -19 76 -69 121 -110 46 -41 95 -86 110 -100 15 -14 64 -59 110
-100 80 -73 95 -87 194 -178 25 -24 46 -47 46 -53 0 -5 -17 -42 -39 -81 -21
-40 -56 -107 -77 -148 -21 -41 -41 -77 -44 -80 -3 -3 -24 -43 -48 -90 -23 -47
-60 -116 -81 -155 l-38 -70 -254 -3 c-248 -2 -262 -1 -321 29 -10 5 -22 9 -28
9 -5 0 -90 27 -187 61 -98 34 -182 62 -188 64 -5 1 -17 5 -25 8 -8 4 -73 26
-145 51 -71 24 -137 46 -145 49 -8 3 -44 15 -80 27 -36 12 -74 25 -85 30 -11
4 -47 16 -80 25 -33 10 -64 21 -70 26 -5 4 -14 8 -20 8 -5 1 -39 11 -75 23
-36 12 -67 22 -70 23 -3 0 -18 5 -35 12 -54 20 -70 26 -80 28 -5 2 -89 30
-185 63 -154 53 -305 104 -320 107 -13 4 -47 17 -62 26 -10 5 -26 9 -36 9 -10
0 -22 3 -26 8 -4 4 -11 7 -14 7 -4 1 -44 13 -89 29 -146 49 -153 69 -80 206
27 52 64 122 81 155 17 33 33 62 36 65 7 7 27 53 28 64 0 5 5 12 10 15 5 3 18
24 29 46 11 22 35 67 53 100 48 89 125 234 152 285 13 25 29 51 36 58 7 8 10
18 7 23 -4 5 -2 9 2 9 5 0 14 12 20 28 7 15 34 68 60 117 27 50 80 149 117
220 38 72 72 135 76 140 4 6 33 60 65 120 32 61 68 127 78 147 11 20 27 39 36
41 20 5 54 -16 96 -57z m-3675 -1237 c63 -23 124 -43 135 -46 11 -3 29 -8 40
-13 29 -13 138 -52 150 -54 18 -4 120 -38 130 -45 6 -3 15 -6 20 -7 6 -1 51
-16 100 -34 50 -17 95 -33 100 -34 6 -2 17 -6 25 -9 8 -3 44 -16 80 -27 36
-12 74 -25 85 -30 18 -8 48 -18 80 -27 25 -7 261 -89 270 -95 6 -3 22 -8 36
-11 14 -4 42 -13 62 -22 l36 -15 -29 -50 c-17 -28 -30 -53 -30 -55 0 -2 -45
-88 -100 -190 -55 -103 -100 -190 -100 -192 0 -3 -8 -17 -19 -31 -10 -15 -22
-38 -26 -52 -4 -14 -11 -27 -15 -30 -6 -5 -45 -77 -193 -360 -33 -63 -64 -116
-69 -118 -4 -2 -8 -11 -8 -20 0 -9 -7 -26 -15 -36 -14 -19 -17 -18 -112 13
-165 55 -307 108 -600 223 l-163 63 0 85 c-1 91 -1 986 0 1158 0 56 4 102 8
102 4 0 59 -18 122 -41z m2777 -960 c164 -55 307 -103 318 -106 11 -2 29 -8
40 -13 30 -12 288 -100 310 -105 31 -7 233 -80 239 -85 4 -4 -1443 -5 -1465
-1 -24 4 -10 47 56 168 41 75 75 140 75 144 0 5 5 9 11 9 5 0 8 4 4 9 -10 16
60 81 88 81 14 0 160 -45 324 -101z m2303 -908 c0 -5 -3 -11 -7 -13 -5 -1 -25
-37 -47 -78 -45 -87 -122 -234 -265 -503 -34 -64 -38 -67 -66 -62 -16 3 -46 8
-65 10 -72 9 -126 17 -155 21 -16 2 -46 6 -65 8 -19 3 -53 8 -75 11 -22 4 -56
8 -75 10 -19 2 -46 6 -60 8 -14 3 -43 8 -65 11 -75 10 -498 79 -555 91 -14 3
-38 8 -55 10 -42 8 -125 23 -155 29 -13 3 -42 8 -64 12 -22 3 -43 7 -47 9 -5
4 -104 23 -159 31 -14 2 -43 8 -65 14 -22 5 -56 12 -75 16 -19 3 -44 8 -55 11
-23 8 -29 9 -74 18 -19 3 -37 8 -41 10 -4 3 -22 7 -41 9 -19 3 -92 19 -164 36
-143 35 -197 47 -235 56 -14 3 -38 9 -55 14 -56 16 -110 30 -130 34 -11 2 -27
6 -35 9 -8 3 -85 24 -170 47 -193 51 -183 48 -194 49 -6 1 -5 6 2 13 7 7 12
19 12 28 0 9 5 21 12 28 15 15 3288 18 3288 3z"/>
</g>
</svg>
